
<svg xmlns="http://www.w3.org/2000/svg" version="1.1" xmlns:xlink="http://www.w3.org/1999/xlink" preserveAspectRatio="none" x="0px" y="0px" width="960px" height="540px" viewBox="0 0 960 540">
<defs>
<g id="Layer0_0_FILL">
<path fill="#FFF176" stroke="none" d="
M 320 0
L 320 540 640 540 640 0 320 0
M 480 321
L 419.55 365.65 442.35 292.85 380 249.9 456.35 249.9 480 174.4 503.7 249.9 580 249.9 517.75 292.85 540.6 365.65 480 321 Z"/>

<path fill="#388E3C" stroke="none" d="
M 419.55 365.65
L 480 321 540.6 365.65 517.75 292.85 580 249.9 503.7 249.9 480 174.4 456.35 249.9 380 249.9 442.35 292.85 419.55 365.65
M 320 0
L 0 0 0 540 320 540 320 0 Z"/>

<path fill="#E53935" stroke="none" d="
M 960 540
L 960 0 640 0 640 540 960 540 Z"/>
</g>
</defs>

<g transform="matrix( 1, 0, 0, 1, 0,0) ">
<use xlink:href="#Layer0_0_FILL"/>
</g>
</svg>
